#!OML:ASF E:\Steps\Project 1\Capture day 1\Session 2\Subject.ASF
:FULLY-SPECIFIED
:DEGREES
456
root -0.758812 16.0901 -4.33331 -160.213 -0.878258 179.063
lowerback -26.187 -2.37437 -4.91396
upperback 1.25373 -1.91205 0.637312
thorax 15.7021 -1.36127 2.65823
lowerneck 10.6274 1.2778 -2.33462
upperneck 8.94928 2.28133 8.63737
head 0.897604 1.57112 3.14706
rclavicle -1.4884e-014 -8.15017e-015
rhumerus -38.3275 -14.0596 -79.735
rradius 46.2837
rwrist -8.9254
rhand -6.79812 -52.1182
rfingers 7.12502
rthumb 19.065 -81.2038
lclavicle -1.4884e-014 -8.15017e-015
lhumerus -31.6295 5.81409 81.1958
lradius 19.1601
lwrist -6.72198
lhand -18.5404 -8.55345
lfingers 7.12502
lthumb 7.74874 21.2846
rfemur -24.4168 6.98237 22.2006
rtibia 13.5327
rfoot -15.574 -6.08984
rtoes -24.082
lfemur -45.7412 -5.76334 -18.6798
ltibia 55.2683
lfoot -7.16502 5.66475
ltoes -29.4104
457
root -0.757715 16.0843 -4.40761 -159.919 -0.393584 179.098
lowerback -26.3276 -2.2452 -4.91694
upperback 1.17006 -1.73437 0.556727
thorax 15.6535 -1.28179 2.63559
lowerneck 10.4126 1.28194 -2.44965
upperneck 9.19964 2.27315 8.83464
head 1.01206 1.58216 3.24392
rclavicle -3.50358e-015 -1.98785e-016
rhumerus -37.9964 -13.8387 -79.9187
rradius 46.7779
rwrist -9.14535
rhand -6.79297 -52.0731
rfingers 7.12502
rthumb 19.0699 -81.1582
lclavicle -3.50358e-015 -1.98785e-016
lhumerus -31.6574 6.37336 80.8491
lradius 18.8725
lwrist -7.24626
lhand -18.4813 -8.57051
lfingers 7.12502
lthumb 7.80584 21.2654
rfemur -24.6537 7.03968 22.2235
rtibia 13.7743
rfoot -15.8244 -5.74071
rtoes -24.4148
lfemur -46.2614 -6.00365 -18.0951
ltibia 53.1579
lfoot -7.71319 6.00909
ltoes -29.3046
458
root -0.757819 16.0782 -4.48795 -159.71 -0.0799061 179.06
lowerback -26.3947 -2.13978 -4.9672
upperback 1.07994 -1.57253 0.444896
thorax 15.5621 -1.21084 2.60047
lowerneck 10.5724 1.42524 -2.34144
upperneck 8.83811 2.47256 8.90014
head 0.855081 1.66466 3.23171
rclavicle -8.69683e-016 -7.95139e-016
rhumerus -37.986 -13.5955 -80.05
rradius 47.4894
rwrist -9.44969
rhand -6.60021 -52.6281
rfingers 7.12502
rthumb 19.2553 -81.6948
lclavicle -8.69683e-016 -7.95139e-016
lhumerus -31.615 6.80142 80.5118
lradius 18.4002
lwrist -7.76898
lhand -18.7029 -9.55653
lfingers 7.12502
lthumb 7.59195 20.2872
rfemur -24.636 7.0968 22.1747
rtibia 13.8139
rfoot -16.0164 -5.54661
rtoes -24.3397
lfemur -46.5599 -6.41697 -17.5414
ltibia 50.8206
lfoot -8.03921 6.35421
ltoes -30.5376
459
root -0.75942 16.0726 -4.57455 -159.666 0.149152 179.014
lowerback -26.5217 -2.08462 -4.98601
upperback 1.1783 -1.46311 0.34204
thorax 15.7285 -1.16199 2.53726
lowerneck 9.99525 1.38428 -2.38521
upperneck 9.05701 2.38086 8.84086
head 1.02922 1.62623 3.23258
rclavicle -5.2181e-015 -4.17448e-015
rhumerus -37.7405 -13.4318 -80.1964
rradius 48.127
rwrist -9.64544
rhand -6.58849 -52.7118
rfingers 7.12502
rthumb 19.2666 -81.7774
lclavicle -5.2181e-015 -4.17448e-015
lhumerus -31.3795 7.07983 80.3235
lradius 17.9618
lwrist -8.08025
lhand -18.7833 -10.088
lfingers 7.12502
lthumb 7.5143 19.7586
rfemur -24.2968 7.25843 22.1341
rtibia 13.7553
rfoot -16.2841 -5.54724
rtoes -24.5635
lfemur -46.5091 -6.94749 -16.9578
ltibia 48.1988
lfoot -7.81793 6.85135
ltoes -30.9241
460
root -0.760949 16.0672 -4.66171 -159.621 0.522852 178.993
lowerback -26.807 -2.29915 -4.83185
upperback 1.34633 -1.28495 0.216427
thorax 16.0619 -0.881732 2.43103
lowerneck 9.61024 1.3729 -2.47851
upperneck 9.11564 2.32741 8.84109
head 1.1154 1.59555 3.25736
rclavicle 6.4605e-016 6.16232e-015
rhumerus -37.3213 -13.122 -80.467
rradius 48.6433
rwrist -9.89899
rhand -6.91289 -52.1768
rfingers 7.12502
rthumb 18.9546 -81.2733
lclavicle 6.4605e-016 6.16232e-015
lhumerus -31.1182 7.35498 80.102
lradius 17.6604
lwrist -8.24185
lhand -18.2717 -9.17258
lfingers 7.12502
lthumb 8.00808 20.6557
rfemur -24.0183 7.55825 22.0747
rtibia 13.7948
rfoot -16.654 -5.47709
rtoes -24.7342
lfemur -46.4185 -7.34689 -16.3388
ltibia 45.5308
lfoot -7.52188 7.20781
ltoes -29.6585
461
root -0.763184 16.0633 -4.74942 -159.633 0.826196 178.993
lowerback -26.9416 -2.27518 -4.83904
upperback 1.3881 -1.2245 0.115228
thorax 16.1705 -0.853107 2.34493
lowerneck 9.89605 1.47792 -2.51491
upperneck 8.86987 2.47169 9.051
head 0.974662 1.65596 3.32496
rclavicle 5.11871e-015 1.05356e-014
rhumerus -37.0942 -12.7342 -80.6624
rradius 48.9913
rwrist -10.1864
rhand -7.13915 -51.8744
rfingers 7.12502
rthumb 18.737 -80.992
lclavicle 5.11871e-015 1.05356e-014
lhumerus -31.1773 7.6937 79.7659
lradius 17.4619
lwrist -8.51214
lhand -18.0481 -9.07328
lfingers 7.12502
lthumb 8.22388 20.7467
rfemur -23.7559 7.89135 22.0295
rtibia 13.9805
rfoot -17.0947 -5.52656
rtoes -24.3038
lfemur -46.2339 -7.8492 -15.6415
ltibia 42.8212
lfoot -7.33639 7.33328
ltoes -29.79
462
root -0.764204 16.0584 -4.83923 -159.729 0.989758 179.099
lowerback -26.8411 -2.25592 -4.80755
upperback 1.39495 -1.21628 0.102464
thorax 16.127 -0.847159 2.31817
lowerneck 10.1076 1.59968 -2.52698
upperneck 8.70276 2.64006 9.13171
head 0.872402 1.73099 3.34449
rclavicle 1.49089e-014 -2.38542e-014
rhumerus -36.9394 -12.5551 -80.687
rradius 49.2522
rwrist -10.2543
rhand -6.9734 -51.949
rfingers 7.12502
rthumb 18.8964 -81.0512
lclavicle 1.49089e-014 -2.38542e-014
lhumerus -31.395 8.24307 79.4077
lradius 17.2905
lwrist -9.14641
lhand -18.3189 -9.65716
lfingers 7.12502
lthumb 7.96256 20.1729
rfemur -23.4951 8.20631 22.1574
rtibia 14.4186
rfoot -17.6211 -5.79505
rtoes -24.4518
lfemur -45.9138 -8.46848 -14.7883
ltibia 40.0764
lfoot -7.19686 7.25333
ltoes -30.6603
463
root -0.766345 16.0513 -4.92706 -159.681 1.16041 179.113
lowerback -26.853 -2.2221 -4.843
upperback 1.39028 -1.1508 0.059769
thorax 16.1215 -0.818467 2.31629
lowerneck 9.51843 1.58501 -2.41841
upperneck 9.23921 2.61861 8.96499
head 1.15218 1.75364 3.28438
rclavicle 1.93815e-015 -5.1684e-015
rhumerus -36.8693 -12.491 -80.6846
rradius 49.6703
rwrist -10.3277
rhand -6.78215 -51.824
rfingers 7.12502
rthumb 19.0803 -80.9081
lclavicle 1.93815e-015 -5.1684e-015
lhumerus -31.4518 8.92617 79.0497
lradius 16.8949
lwrist -10.1377
lhand -18.4138 -9.47724
lfingers 7.12502
lthumb 7.87092 20.3562
rfemur -22.994 7.93058 22.2317
rtibia 14.0502
rfoot -17.778 -5.39255
rtoes -24.4695
lfemur -45.8272 -9.0805 -14.0453
ltibia 37.5106
lfoot -7.01983 6.87272
ltoes -29.8566
464
root -0.771771 16.0432 -5.01582 -159.601 1.31655 179.007
lowerback -26.9596 -2.21099 -4.97198
upperback 1.36865 -1.06444 -0.0370349
thorax 16.1413 -0.783185 2.31356
lowerneck 10.3026 1.59442 -2.38635
upperneck 8.58876 2.65623 9.02623
head 0.804911 1.73569 3.27645
rclavicle -6.06293e-015 -1.55052e-014
rhumerus -36.8253 -12.3565 -80.6847
rradius 50.0525
rwrist -10.637
rhand -6.88168 -51.7854
rfingers 7.12502
rthumb 18.9846 -80.8789
lclavicle -6.06293e-015 -1.55052e-014
lhumerus -31.3248 9.35617 78.7818
lradius 16.3207
lwrist -10.9357
lhand -18.414 -9.11031
lfingers 7.12502
lthumb 7.8708 20.7232
rfemur -22.7249 7.84403 22.1045
rtibia 14.0941
rfoot -18.1731 -5.1312
rtoes -23.7134
lfemur -45.7273 -9.80265 -13.4143
ltibia 34.8964
lfoot -6.72951 6.32201
ltoes -29.3359
465
root -0.776039 16.0342 -5.1086 -159.66 1.42331 179.004
lowerback -26.8873 -2.22522 -5.04513
upperback 1.33525 -1.05869 -0.058936
thorax 16.0656 -0.782601 2.33337
lowerneck 9.65955 1.48516 -2.42211
upperneck 9.23595 2.49171 8.95919
head 1.13533 1.69015 3.2848
rclavicle -1.98785e-015 -2.38542e-014
rhumerus -36.6974 -12.2965 -80.5845
rradius 50.1253
rwrist -10.7933
rhand -6.92225 -51.8721
rfingers 7.12502
rthumb 18.9456 -80.9694
lclavicle -1.98785e-015 -2.38542e-014
lhumerus -31.339 9.68972 78.5696
lradius 15.9617
lwrist -11.3044
lhand -18.2552 -8.68607
lfingers 7.12502
lthumb 8.02401 21.1416
rfemur -22.2479 7.83523 22.1249
rtibia 14.0492
rfoot -18.5167 -5.00774
rtoes -23.4623
lfemur -45.3632 -10.5962 -12.6475
ltibia 32.1393
lfoot -6.18702 5.66248
ltoes -32.7009
466
root -0.777797 16.0236 -5.20205 -159.646 1.59694 179.099
lowerback -26.9451 -2.23286 -5.06002
upperback 1.32966 -1.06504 -0.0273133
thorax 16.0893 -0.788149 2.37298
lowerneck 9.13601 1.42995 -2.72566
upperneck 9.8368 2.37938 9.19941
head 1.42282 1.66424 3.44906
rclavicle 4.72114e-015 4.37326e-015
rhumerus -36.5062 -12.2041 -80.4868
rradius 50.1409
rwrist -10.7635
rhand -6.79 -52.1783
rfingers 7.12502
rthumb 19.0728 -81.2631
lclavicle 4.72114e-015 4.37326e-015
lhumerus -31.4747 10.4884 78.2082
lradius 15.7655
lwrist -11.9337
lhand -18.0378 -8.52721
lfingers 7.12502
lthumb 8.23382 21.2923
rfemur -21.8645 7.7133 22.2792
rtibia 14.0113
rfoot -18.9169 -4.77416
rtoes -23.8007
lfemur -45.1726 -11.2287 -11.7725
ltibia 29.6357
lfoot -5.5988 4.71018
ltoes -35.9402
